<?xml version="1.0" encoding="utf-8"?>
<svg version="1.0" xmlns="http://www.w3.org/2000/svg" width="778.000000pt" height="778.000000pt" viewBox="0 0 778.000000 778.000000" preserveAspectRatio="xMidYMid meet">
  <g transform="translate(0.000000,778.000000) scale(0.100000,-0.100000)" fill="none" stroke="none">
    <path d="M4935 6708 c-58 -45 -55 21 -55 -1342 l0 -1255 -81 -93 c-45 -51 -106 -121 -136 -155 -30 -35 -59 -63 -64 -63 -5 0 -9 440 -9 1141 0 1251 3 1184 -58 1226 -23 15 -48 18 -169 18 -159 0 -181 -8 -215 -76 -17 -32 -18 -121 -18 -1445 l0 -1411 -27 -34 c-69 -85 -186 -219 -192 -219 -4 0 -21 15 -39 33 l-32 33 0 1234 c0 1217 0 1235 -20 1268 -29 47 -58 55 -215 53 -156 -2 -175 -8 -207 -72 -17 -32 -18 -99 -18 -981 0 -752 -3 -948 -12 -947 -7 0 -40 32 -73 71 -33 40 -93 109 -132 154 l-73 81 0 519 c0 592 4 566 -83 599 -65 25 -279 18 -320 -9 -57 -39 -65 -90 -67 -414 0 -79 -4 -132 -9 -130 -6 2 -52 53 -103 114 -51 61 -214 252 -363 424 -148 171 -278 323 -288 336 -18 24 -18 24 5 24 12 0 259 1 548 3 l525 2 47 23 c26 13 61 39 77 57 74 84 66 240 -15 317 -65 60 -26 58 -931 58 -797 0 -830 -1 -871 -20 -83 -38 -132 -115 -132 -210 0 -82 14 -110 106 -219 44 -50 113 -132 154 -180 41 -48 161 -186 265 -306 105 -120 210 -242 235 -271 163 -190 692 -803 940 -1089 162 -187 372 -430 465 -539 94 -109 223 -259 288 -333 l117 -135 0 -669 0 -669 -397 0 c-428 -1 -440 -2 -508 -54 -66 -51 -96 -147 -75 -238 16 -66 86 -141 147 -157 29 -8 342 -11 1081 -9 l1039 3 49 30 c92 56 131 189 85 291 -24 53 -91 109 -146 123 -28 7 -181 11 -429 11 l-386 0 0 673 0 672 271 315 c149 173 389 452 533 619 143 167 320 371 391 454 72 82 161 186 199 231 38 44 125 146 195 226 70 80 195 224 278 320 83 96 254 294 379 438 304 350 305 352 312 441 4 62 1 77 -22 126 -29 58 -69 95 -125 114 -23 7 -156 11 -413 11 -352 0 -381 -1 -416 -19 -103 -53 -152 -160 -122 -269 13 -51 80 -129 127 -148 20 -9 72 -14 138 -14 66 0 105 -4 105 -10 0 -9 -134 -167 -349 -410 -31 -36 -102 -117 -156 -180 -54 -63 -102 -116 -107 -118 -10 -4 -10 18 -9 1063 1 516 -2 866 -8 890 -6 23 -23 51 -41 68 -30 27 -30 27 -184 27 -142 0 -155 -2 -181 -22z" fill="#2563eb"/>
  </g>
</svg>
